<svg xmlns="http://www.w3.org/2000/svg" width="152" height="18" viewBox="0 0 152 18">
    <g fill="none" fill-rule="evenodd">
        <g fill="#ffffff">
            <path d="M12.37 0v17.421h2.218V8.25h2.331V6.277h-2.331V0H12.37zM9.514 1.24v4.229H8.386v-4.19H6.488V12.78h4.923V1.24H9.514zM8.33 10.976h1.184v-3.74H8.33v3.74zM3.97 1.259V5.45H2.898V1.297H1v11.464h4.868V1.259H3.97zm-1.072 9.698h1.109v-3.74H2.898v3.74zM30.505 17.421h2.312V.001h-2.312v17.42zm-.639-7.028v1.898c-.463.163-1.017.288-1.663.376-.645.088-1.319.131-2.02.131H24.21V1.466h4.848v1.935h-2.612v7.424h.583c.401 0 .846-.038 1.334-.113.49-.075.99-.182 1.503-.319zm-6.089.075v1.917c-.488.138-1.008.241-1.559.31-.552.07-1.128.103-1.729.103h-1.88V1.466h5.018v1.935h-2.744v7.405h.244c.39 0 .793-.025 1.213-.074.42-.05.9-.139 1.437-.264zM55.603 12.478h1.616V.113h-1.616v12.365zm1.992 4.455H46.488v-5.262h1.654v3.853h9.453v1.41zM45.586 7.894h4.642V2.387h-4.642v5.507zm-1.616 1.39h7.855v-8.27H43.97v8.27zM73.419 1.222c-.313.702-.736 1.351-1.27 1.945-.531.595-1.161 1.156-1.887 1.682.789.39 1.64.74 2.556 1.053.914.313 1.879.576 2.894.79l-.808 1.371c-1.103-.276-2.152-.608-3.148-.996-.996-.389-1.945-.846-2.847-1.372-.927.526-1.936.993-3.026 1.4-1.09.407-2.243.761-3.458 1.062l-.79-1.354c1.19-.25 2.287-.554 3.29-.91 1.002-.358 1.898-.743 2.687-1.156.789-.414 1.472-.843 2.049-1.288.576-.445 1.027-.893 1.353-1.344-.715.038-1.416.06-2.105.066-.69.006-1.385.01-2.086.01H63.29V.788h7.301c.82 0 1.675-.01 2.565-.037.138-.012.232.037.282.151.05.112.043.218-.02.32zm-12.78 8.42h15.975v1.41h-7.028v6.125h-1.654v-6.126H60.64v-1.41zM91.122 1.222c-.313.702-.736 1.351-1.27 1.945-.531.595-1.161 1.156-1.887 1.682.789.39 1.64.74 2.556 1.053.914.313 1.879.576 2.894.79l-.808 1.371c-1.103-.276-2.152-.608-3.148-.996-.996-.389-1.945-.846-2.847-1.372-.927.526-1.936.993-3.026 1.4-1.09.407-2.243.761-3.458 1.062l-.79-1.354c1.19-.25 2.287-.554 3.29-.91 1.002-.358 1.898-.743 2.687-1.156.789-.414 1.472-.843 2.049-1.288.576-.445 1.027-.893 1.353-1.344-.715.038-1.416.06-2.105.066-.69.006-1.385.01-2.086.01h-3.533V.788h7.301c.82 0 1.675-.01 2.565-.037.138-.012.232.037.282.151.05.112.043.218-.02.32zm-12.78 8.42h15.975v1.41h-7.028v6.125h-1.654v-6.126h-7.292v-1.41zM109.22 17.271h1.56V.114h-1.56v17.157zm-4.605-11.784c0-.9-.247-1.616-.742-2.14-.495-.528-1.168-.79-2.02-.79-.853 0-1.526.262-2.02.79-.496.524-.743 1.24-.743 2.14 0 .903.247 1.617.743 2.143.494.526 1.167.79 2.02.79.852 0 1.525-.264 2.02-.79.495-.526.742-1.24.742-2.143zm1.654 0c0 .615-.103 1.188-.309 1.72-.206.533-.499.993-.879 1.382-.38.388-.846.692-1.394.911-.55.22-1.16.33-1.834.33-.674 0-1.286-.11-1.834-.33-.549-.219-1.014-.523-1.394-.91-.38-.39-.674-.85-.88-1.383-.206-.532-.309-1.105-.309-1.72 0-.613.103-1.186.31-1.718.205-.534.498-.994.88-1.382.38-.388.844-.693 1.393-.91.548-.22 1.16-.33 1.834-.33.673 0 1.284.11 1.834.33.548.217 1.013.522 1.394.91.38.388.673.848.88 1.382.205.532.308 1.105.308 1.718zm-9.979 6.766h3.44c.625 0 1.314-.009 2.066-.028.752-.019 1.513-.047 2.284-.084.77-.038 1.522-.088 2.255-.15.733-.063 1.4-.132 2.001-.208v1.354c-.6.088-1.262.163-1.982.225-.72.063-1.46.116-2.218.16s-1.513.08-2.264.103c-.752.025-1.46.038-2.124.038H96.29v-1.41zM131.614 9.791h-1.56V5.562h-2.143v4.23h-1.541V.301h1.54v3.87h2.144V.113h1.56v9.678zm-9.378 5.826h7.762v-3.439h-7.762v3.44zm-1.616 1.391h10.994V10.77H120.62v6.24zM117.839 4.38h1.766c.576 0 1.124-.016 1.644-.047.52-.03 1.043-.085 1.57-.16.25-.639.407-1.309.469-2.01-.551.025-1.1.04-1.644.046-.545.007-1.081.01-1.607.01h-1.917V.884H122.897c.679 0 1.36-.013 2.045-.038-.038 1.027-.187 1.986-.446 2.875-.26.89-.671 1.72-1.231 2.49-.561.77-1.286 1.478-2.175 2.124-.89.645-1.974 1.23-3.251 1.757l-.921-1.165c1.29-.439 2.355-.958 3.195-1.56.838-.6 1.503-1.247 1.99-1.935-.462.088-.951.143-1.465.17-.513.024-1.04.036-1.578.036h-1.221V4.38zM136.762 2.97h11.728V1.598h-11.728V2.97zm-.3 7.028V8.626h2.292l-.13-5.036h1.615l.094 5.055h4.51l.17-5.055h1.615l-.206 5.036h2.35v1.372h-12.31zM134.6 14.79h15.975v-1.372H134.6v1.372z"/>
        </g>
    </g>
</svg>